<?xml version="1.0" encoding="UTF-8"?>
<svg width="125px" height="48px" viewBox="0 0 125 48" version="1.1" xmlns="http://www.w3.org/2000/svg" xmlns:xlink="http://www.w3.org/1999/xlink">
    <title>Group 6</title>
    <g id="Page-1" stroke="none" stroke-width="1" fill="none" fill-rule="evenodd">
        <g id="Desktop" transform="translate(-119.000000, -61.000000)" fill="#000000" fill-rule="nonzero">
            <g id="Group-6" transform="translate(119.667208, 61.686206)">
                <path d="M15.1413857,30.0930907 C15.1413857,31.7337157 14.5407998,33.0667235 13.3396279,34.0921141 C12.138456,35.1175048 10.3542764,35.6302001 7.98708886,35.6302001 C6.66287011,35.6302001 5.48513573,35.5100829 4.45388573,35.2698485 C3.42263573,35.0296141 2.29763573,34.6868407 1.07888573,34.2415282 L1.07888573,29.7415282 C2.14529198,30.3509032 3.07107323,30.8137938 3.85622948,31.1302001 C4.64138573,31.4466063 5.50271386,31.6048095 6.44021386,31.6048095 C8.02224511,31.6048095 8.81326073,31.1712157 8.81326073,30.3040282 C8.81326073,30.0110595 8.69900292,29.7503173 8.4704873,29.5218016 C8.24197167,29.293286 7.84353417,29.0354735 7.2751748,28.7483641 C6.70681542,28.4612548 5.94802636,28.1184813 4.99880761,27.7200438 C3.82693261,27.2044188 2.83083886,26.5130126 2.01052636,25.6458251 C1.19021386,24.7786376 0.780057608,23.7180907 0.780057608,22.4641845 C0.780057608,21.5735595 1.05251855,20.7180907 1.59744042,19.8977782 C2.1423623,19.0774657 2.96560448,18.4065673 4.06716698,17.8850829 C5.16872948,17.3635985 6.49880761,17.1028563 8.05740136,17.1028563 C8.43240136,17.1028563 8.90994042,17.1292235 9.49001855,17.1819579 C10.0700967,17.2346923 10.8025185,17.3723876 11.6872842,17.5950438 C12.5720498,17.8177001 13.4128701,18.1341063 14.2097451,18.5442626 L14.2097451,22.9212157 C13.8347451,22.6985595 13.5212685,22.5110595 13.2693154,22.3587157 C13.0173623,22.206372 12.6804482,22.0364501 12.2585732,21.8489501 C11.8366982,21.6614501 11.341581,21.4944579 10.7732217,21.3479735 C10.2048623,21.2014891 9.62185448,21.128247 9.02419823,21.128247 C8.29763573,21.128247 7.79958886,21.268872 7.53005761,21.550122 C7.26052636,21.831372 7.12576073,22.112622 7.12576073,22.393872 C7.12576073,22.6868407 7.26638573,22.9593016 7.54763573,23.2112548 C7.82888573,23.4632079 8.45583886,23.7766845 9.42849511,24.1516845 C10.8347451,24.690747 11.9597451,25.2444579 12.8034951,25.8128173 C13.6472451,26.3811766 14.247831,27.0052001 14.6052529,27.6848876 C14.9626748,28.3645751 15.1413857,29.1673095 15.1413857,30.0930907 Z" id="Path" transform="translate(7.960722, 26.366528) rotate(5.000000) translate(-7.960722, -26.366528) "></path>
                <path d="M39.2214639,26.2434813 C39.2214639,27.4387938 39.051542,28.5930907 38.7116982,29.706372 C38.3718545,30.8196532 37.8532998,31.824536 37.1560342,32.7210204 C36.4587685,33.6175048 35.5622842,34.3264891 34.466581,34.8479735 C33.3708779,35.3694579 32.0964639,35.6302001 30.6433389,35.6302001 C29.4714639,35.6302001 28.5486123,35.5071532 27.8747842,35.2610595 C27.200956,35.0149657 26.5300576,34.6868407 25.8620889,34.2766845 L25.8620889,43.4524657 L19.5339639,43.4524657 L19.5339639,17.4192626 L25.8620889,17.4192626 L25.8620889,19.0364501 C26.4949014,18.4856688 27.1950967,18.0257079 27.9626748,17.6565673 C28.7302529,17.2874266 29.770292,17.1028563 31.082792,17.1028563 C32.3835732,17.1028563 33.660917,17.425122 34.9148232,18.0696532 C36.1687295,18.7141845 37.1999795,19.7190673 38.0085732,21.0843016 C38.817167,22.449536 39.2214639,24.1692626 39.2214639,26.2434813 Z M32.5593545,26.3841063 C32.5593545,25.3059813 32.3894326,24.4300048 32.0495889,23.7561766 C31.7097451,23.0823485 31.270292,22.5960204 30.7312295,22.2971923 C30.192167,21.9983641 29.6355264,21.8489501 29.0613076,21.8489501 C28.3113076,21.8489501 27.6960732,21.9690673 27.2156045,22.2093016 C26.7351357,22.449536 26.2839639,22.7512938 25.8620889,23.1145751 L25.8620889,29.9524657 C26.0847451,30.0696532 26.3220498,30.2014891 26.5740029,30.3479735 C26.825956,30.4944579 27.0779092,30.6204345 27.3298623,30.7259032 C27.5818154,30.831372 27.8513467,30.9192626 28.138456,30.9895751 C28.4255654,31.0598876 28.7331826,31.0950438 29.0613076,31.0950438 C30.0574014,31.0950438 30.8894326,30.6731688 31.5574014,29.8294188 C32.2253701,28.9856688 32.5593545,27.8372313 32.5593545,26.3841063 Z" id="Shape" transform="translate(29.377714, 30.277661) rotate(-5.000000) translate(-29.377714, -30.277661) "></path>
                <path d="M82.0456826,23.3841063 C82.0456826,26.9466063 81.2722451,30.1223876 79.7253701,32.9114501 C78.1784951,35.7005126 75.864042,37.9036376 72.7820107,39.5208251 C69.6999795,41.1380126 65.9441201,41.9466063 61.5144326,41.9466063 C57.0847451,41.9466063 53.3288857,41.1380126 50.2468545,39.5208251 C47.1648232,37.9036376 44.8562295,35.7005126 43.3210732,32.9114501 C41.785917,30.1223876 41.0183389,26.9466063 41.0183389,23.3841063 C41.0183389,20.6887938 41.4460732,18.2395751 42.301542,16.0364501 C43.1570107,13.8333251 44.457792,11.8821532 46.2038857,10.1829345 C47.9499795,8.48371571 50.1003701,7.17707508 52.6550576,6.26301258 C55.2097451,5.34895008 58.1628701,4.89191883 61.5144326,4.89191883 C64.8894326,4.89191883 67.8718545,5.35480946 70.4616982,6.28059071 C73.051542,7.20637196 75.1960732,8.50129383 76.895292,10.1653563 C78.5945107,11.8294188 79.8777139,13.7747313 80.7449014,16.0012938 C81.6120889,18.2278563 82.0456826,20.6887938 82.0456826,23.3841063 Z" id="Shape" transform="translate(61.532011, 23.419263) rotate(100.000000) translate(-61.532011, -23.419263) "></path>
                <path d="M99.7136514,34.2766845 C99.0574014,34.5930907 98.1521279,34.8977782 96.997831,35.190747 C95.8435342,35.4837157 94.739042,35.6302001 93.6843545,35.6302001 C89.1257607,35.6302001 86.8464639,33.4036376 86.8464639,28.9505126 L86.8464639,21.8137938 L83.9812295,21.8137938 L83.9812295,20.706372 L92.4714639,12.0579345 L93.192167,12.0579345 L93.192167,17.4192626 L99.239042,17.4192626 L99.239042,21.8137938 L93.192167,21.8137938 L93.192167,27.5442626 C93.192167,28.2122313 93.2331826,28.7512938 93.3152139,29.1614501 C93.3972451,29.5716063 93.6286904,29.9143798 94.0095498,30.1897704 C94.3904092,30.465161 94.9675576,30.6028563 95.7409951,30.6028563 C96.7488076,30.6028563 98.0730264,30.1809813 99.7136514,29.3372313 L99.7136514,34.2766845 Z" id="Path" transform="translate(91.847440, 23.844067) rotate(-5.000000) translate(-91.847440, -23.844067) "></path>
                <polygon id="Path" transform="translate(114.242948, 26.366528) rotate(5.000000) translate(-114.242948, -26.366528) " points="123.50662 17.9993407 114.946073 30.6380126 123.330839 30.6380126 123.330839 35.3137938 104.979276 35.3137938 104.979276 34.7337157 113.539823 22.0950438 105.699979 22.0950438 105.699979 17.4192626 123.50662 17.4192626"></polygon>
            </g>
        </g>
    </g>
</svg>